<?xml version="1.0" encoding="UTF-8"?>
<svg xmlns="http://www.w3.org/2000/svg" width="256" height="256" viewBox="0 0 256 256">
  <defs>
    <linearGradient id="g" x1="0" x2="1">
      <stop offset="0%" stop-color="#2b2b2b"/>
      <stop offset="100%" stop-color="#111"/>
    </linearGradient>
  </defs>
  <rect rx="40" ry="40" width="256" height="256" fill="url(#g)" />
  <g transform="translate(0,6)">
    <path d="M86 74c0-6 5-11 11-11h62c6 0 11 5 11 11v74c0 6-5 11-11 11H97c-6 0-11-5-11-11z" fill="#ffffff" opacity="0.06"/>
    <path d="M94 98c0-18 20-30 40-30s40 12 40 30-20 30-40 30-40-12-40-30z" fill="#fff" opacity="0.06"/>
    <text x="50%" y="56%" font-family="Georgia, serif" font-size="110" fill="#fff" text-anchor="middle" dominant-baseline="middle" opacity="0.95">N</text>
  </g>
</svg>
